<svg id="canvas" height="auto" xmlns="http://www.w3.org/2000/svg" version="1.1" xmlns:xlink="http://www.w3.org/1999/xlink" xmlns:svgjs="http://svgjs.dev/svgjs" viewBox="0 0 900 512" width="auto" style="width: auto; height: auto;"><rect width="900" height="512" fill="#1e1f21ff"/><path d="M82.1634759105321 253.8627550590545C53.054689904458485 280.4924217624466 32.15291612640931 314.88434537630917 -5.270558246653195 326.4035452324308C-42.6940326197157 337.92274508855246 -101.51831838961897 338.3228554694779 -142.3773703278429 322.9779541957844C-183.23642226606685 307.6330529220909 -218.09076729490582 266.9723430296784 -250.42486987599688 234.33413759026996C-282.7589724570879 201.6959321508615 -319.8398026829476 165.84438479499056 -336.3819858143893 127.14872155933352C-352.92416894583096 88.45305832367649 -349.82492976611474 46.49247443788602 -349.677968664647 2.1601581763279114C-349.53100756317923 -42.172158085230194 -353.54550595924434 -97.79133949389598 -335.50021920558277 -138.8451760100152C-317.4549324519212 -179.8990125261344 -273.11850603129943 -210.73978363070614 -241.4062481426776 -244.1628609203875C-209.6939902540558 -277.58593821006883 -185.82044318485845 -322.1490362261304 -145.22667187385176 -339.3836397481032C-104.63290056284507 -356.61824327007594 -45.73229190875958 -347.72326296787054 2.156379723362477 -347.5704820522239C50.04505135548453 -347.41770113657725 96.97502658255297 -355.8487921838908 142.1053579188806 -338.46695425422337C187.23568925520817 -321.08511632455594 235.44654911851728 -277.71143692639396 272.9383677413282 -243.27945447421922C310.4301863641391 -208.8474720220445 356.2844801934049 -170.9497080109303 367.05626965574584 -131.87505954117512C377.8280591180868 -92.80041107141994 344.7139807156674 -52.138643694613506 337.56910451537397 -8.831563655688171C330.42422831508054 34.475516383237164 352.21817024158315 98.72456924774906 324.1870124539855 127.96742069237678C296.1558546663879 157.2102721370045 209.71941388036396 145.64298928429832 169.38215778978838 166.62554501207796C129.0449016992128 187.6081007398576 111.27226191660571 227.2330883556624 82.1634759105321 253.8627550590545C53.054689904458485 280.4924217624466 32.15291612640931 314.88434537630917 -5.270558246653195 326.4035452324308 " fill="url(#SvgjsLinearGradient1111)"/><defs><linearGradient gradientTransform="matrix(1,0,0,1,0,0)" id="SvgjsLinearGradient1111"><stop stop-color="#30bb15ff" offset="0"/><stop stop-color="#15bba0ff" offset="1"/></linearGradient><linearGradient gradientTransform="matrix(1,0,0,1,0,0)" id="SvgjsLinearGradient1112"><stop stop-color="#30bb15ff" offset="0"/><stop stop-color="#15bba0ff" offset="1"/></linearGradient><linearGradient gradientTransform="matrix(1,0,0,1,0,0)" id="SvgjsLinearGradient1113"><stop stop-color="#30bb15ff" offset="0"/><stop stop-color="#15bba0ff" offset="1"/></linearGradient></defs><path d="M1034.6688057753347 936.5324770751668C991.5272882542685 946.7051383022064 929.0107473078348 914.0121429637178 881.5921960985005 908.9933475361095C834.1736448891662 903.9745521085011 789.8684338552326 925.9102469436018 750.1574985193291 906.419704509517C710.4465631834255 886.9291620754323 674.5301113737868 827.0996836548804 643.3265840830793 792.0500929316006C612.1230567923718 757.0005022083208 578.4112022941631 725.6711079122284 562.936334775084 696.1221601698377C547.4614672560049 666.573212427447 549.9279156992679 651.8590008507649 550.4773789686049 614.7564064772562C551.0268422379418 577.6538121037474 548.7529599656036 515.4869309298963 566.2331143911055 473.5065939287854C583.7132688166073 431.52625692767447 622.6060720743936 396.23395343907316 655.3583055216161 362.8743844705908C688.1105389688387 329.5148155021085 721.3121536940611 288.122453208892 762.7465150744404 273.34918011789136C804.1808764548198 258.5759070268907 857.0954477487676 274.2096369737096 903.9644738038921 274.2347459245869C950.8334998590167 274.25985487546416 1009.1046978419772 259.3992633511417 1043.960671405188 273.49983382315503C1078.8166449683986 287.60040429516835 1087.0780072010084 328.07885766509304 1113.1003151831567 358.8381687566667C1139.122623165305 389.5974798482403 1173.1873707174198 414.5325381564456 1200.0945192980778 458.0557003725969C1227.0016678787358 501.57886258874817 1264.8436920525523 569.1156181803636 1274.5432066671046 619.9771420535744C1284.2427212816565 670.8386659267851 1280.641924559091 725.2281372584783 1258.29160698539 763.2248436118613C1235.941289411689 801.2215499652442 1177.7117680932406 819.0727745966544 1140.441301224898 847.957380173872C1103.1708343565556 876.8419857510896 1077.8103232964008 926.3598158481271 1034.6688057753347 936.5324770751668C991.5272882542685 946.7051383022064 929.0107473078348 914.0121429637178 881.5921960985005 908.9933475361095 " fill="url(#SvgjsLinearGradient1112)" transform="matrix(-1,1.2246467991473532e-16,-1.2246467991473532e-16,-1,1829.6099853515625,1205.4826049804688)"/><path d="M314.11518507161645 1104.9480049003769C275.0302575256028 1124.8357559123087 233.39556326776415 1132.941770193099 188.52471486849402 1137.1262386011163C143.65386646922389 1141.3107070091335 88.79639225140062 1151.360117544405 44.89009467599581 1130.0548153484804C0.9837971005910049 1108.7495131525557 -40.82061113381755 1047.4626565747799 -74.9130705839348 1009.2944254255683C-109.00553003405204 971.1261942763566 -142.99985788238655 939.2060929539828 -159.66466202470764 901.04542845321C-176.32946616702873 862.8847639524372 -175.10180091382693 824.199933593645 -174.90189543786136 780.3304384209316C-174.70198996189578 736.460943248218 -174.40179638881446 681.9697037760026 -158.46522916891422 637.8284574169288C-142.52866194901398 593.687211057855 -108.10809194260159 549.658249210322 -79.28249211845988 515.4829602664889C-50.45689229431818 481.3076713226559 -21.64117046734134 447.42104718318205 14.488369775935979 432.77672375393047C50.6179100192133 418.1324003246789 96.30930310848555 427.6396245955452 137.49474934120406 427.61701969097925C178.68019557392256 427.5944147864133 223.91662633209341 417.9774799716199 261.6010471722469 432.641094326535C299.28546801240043 447.30470868145005 332.8348812675913 485.86068981179255 363.6012743821252 515.5987058204698C394.3676674966591 545.3367218291471 417.89754975341793 566.5068039993954 446.19940585945074 611.0691903785987C474.50126196548354 655.6315767578019 518.6657757059879 730.403509349451 533.4124110183217 782.9730240956891C548.1590463306554 835.5425388419271 553.0755728790779 887.3484941170543 534.6792177334536 926.4862788560268C516.2828625878293 965.6240635949994 459.794952254882 988.0561115221323 423.03428014457586 1017.7997325295239C386.2736080342697 1047.5433535369157 353.2001126176301 1085.0602538884445 314.11518507161645 1104.9480049003769C275.0302575256028 1124.8357559123087 233.39556326776415 1132.941770193099 188.52471486849402 1137.1262386011163 " fill="url(#SvgjsLinearGradient1113)"/></svg>